<svg width="25" height="25" viewBox="0 0 25 25" fill="none" xmlns="http://www.w3.org/2000/svg">
    <g clip-path="url(#clip0_1_42)">
    <path d="M8.94604 7.33081C5.84058 7.33081 3.33569 9.83569 3.33569 12.9412C3.33569 16.0466 5.84058 18.5515 8.94604 18.5515C12.0515 18.5515 14.5564 16.0466 14.5564 12.9412C14.5564 9.83569 12.0515 7.33081 8.94604 7.33081ZM8.94604 16.5886C6.93921 16.5886 5.29858 14.9529 5.29858 12.9412C5.29858 10.9294 6.93433 9.2937 8.94604 9.2937C10.9578 9.2937 12.5935 10.9294 12.5935 12.9412C12.5935 14.9529 10.9529 16.5886 8.94604 16.5886ZM16.0945 7.10132C16.0945 7.82886 15.5085 8.40991 14.7859 8.40991C14.0584 8.40991 13.4773 7.82397 13.4773 7.10132C13.4773 6.37866 14.0632 5.79272 14.7859 5.79272C15.5085 5.79272 16.0945 6.37866 16.0945 7.10132ZM19.8103 8.42944C19.7273 6.67651 19.3269 5.12378 18.0427 3.84448C16.7634 2.56519 15.2107 2.16479 13.4578 2.0769C11.6511 1.97437 6.23608 1.97437 4.42944 2.0769C2.6814 2.15991 1.12866 2.5603 -0.155517 3.8396C-1.4397 5.1189 -1.83521 6.67163 -1.9231 8.42456C-2.02563 10.2312 -2.02563 15.6462 -1.9231 17.4529C-1.84009 19.2058 -1.4397 20.7585 -0.155517 22.0378C1.12866 23.3171 2.67651 23.7175 4.42944 23.8054C6.23608 23.908 11.6511 23.908 13.4578 23.8054C15.2107 23.7224 16.7634 23.322 18.0427 22.0378C19.322 20.7585 19.7224 19.2058 19.8103 17.4529C19.9128 15.6462 19.9128 10.2361 19.8103 8.42944ZM17.4763 19.3914C17.0955 20.3484 16.3582 21.0857 15.3962 21.4714C13.9558 22.0427 10.5378 21.9109 8.94604 21.9109C7.35425 21.9109 3.9314 22.0378 2.49585 21.4714C1.53882 21.0906 0.801514 20.3533 0.415771 19.3914C-0.155517 17.9509 -0.0236815 14.533 -0.0236815 12.9412C-0.0236815 11.3494 -0.150635 7.92651 0.415771 6.49097C0.796631 5.53394 1.53394 4.79663 2.49585 4.41089C3.93628 3.8396 7.35425 3.97144 8.94604 3.97144C10.5378 3.97144 13.9607 3.84448 15.3962 4.41089C16.3533 4.79175 17.0906 5.52905 17.4763 6.49097C18.0476 7.9314 17.9158 11.3494 17.9158 12.9412C17.9158 14.533 18.0476 17.9558 17.4763 19.3914Z" fill="#C86BCA" fill-opacity="0.6"/>
    </g>
    <defs>
    <clipPath id="clip0_1_42">
    <rect width="25" height="25" fill="white"/>
    </clipPath>
    </defs>
    </svg>
    