<svg width="25" height="25" viewBox="0 0 25 25" fill="none" xmlns="http://www.w3.org/2000/svg">
    <path d="M12.9609 0C7.95117 0 3 3.33984 3 8.74512C3 12.1826 4.93359 14.1357 6.10547 14.1357C6.58887 14.1357 6.86719 12.7881 6.86719 12.4072C6.86719 11.9531 5.70996 10.9863 5.70996 9.09668C5.70996 5.1709 8.69824 2.3877 12.5654 2.3877C15.8906 2.3877 18.3516 4.27734 18.3516 7.74902C18.3516 10.3418 17.3115 15.2051 13.9424 15.2051C12.7266 15.2051 11.6865 14.3262 11.6865 13.0664C11.6865 11.2207 12.9756 9.43359 12.9756 7.5293C12.9756 4.29688 8.39062 4.88281 8.39062 8.78906C8.39062 9.60938 8.49316 10.5176 8.85938 11.2646C8.18555 14.165 6.80859 18.4863 6.80859 21.4746C6.80859 22.3975 6.94043 23.3057 7.02832 24.2285C7.19434 24.4141 7.11133 24.3945 7.36523 24.3018C9.82617 20.9326 9.73828 20.2734 10.8516 15.8643C11.4521 17.0068 13.0049 17.6221 14.2354 17.6221C19.4209 17.6221 21.75 12.5684 21.75 8.0127C21.75 3.16406 17.5605 0 12.9609 0Z" fill="#F80C29" fill-opacity="0.6"/>
    </svg>
    