<svg width="25" height="25" viewBox="0 0 25 25" fill="none" xmlns="http://www.w3.org/2000/svg">
    <g clip-path="url(#clip0_1_44)">
    <path d="M21.4302 7.06025C21.446 7.28232 21.446 7.50444 21.446 7.72651C21.446 14.5 16.2906 22.3045 6.86802 22.3045C3.96509 22.3045 1.26841 21.4638 -1 20.0044C-0.587549 20.052 -0.191016 20.0679 0.237305 20.0679C2.63257 20.0679 4.83755 19.2589 6.59834 17.8788C4.3458 17.8312 2.45811 16.356 1.80771 14.3255C2.125 14.373 2.44224 14.4048 2.77539 14.4048C3.2354 14.4048 3.69546 14.3413 4.12373 14.2303C1.77603 13.7544 0.0151856 11.6922 0.0151856 9.20176V9.13833C0.697266 9.51904 1.49048 9.75698 2.33115 9.78867C0.951074 8.8686 0.0469239 7.29819 0.0469239 5.52153C0.0469239 4.56978 0.300684 3.69731 0.744873 2.93589C3.26709 6.04502 7.05835 8.07544 11.3096 8.29756C11.2303 7.91685 11.1827 7.52031 11.1827 7.12373C11.1827 4.3001 13.4669 2 16.3064 2C17.7816 2 19.1141 2.61865 20.05 3.61802C21.208 3.39595 22.3184 2.96763 23.302 2.38071C22.9212 3.57046 22.1122 4.56982 21.0494 5.2043C22.0805 5.09331 23.0799 4.80771 23.9999 4.41118C23.302 5.42637 22.4295 6.33052 21.4302 7.06025Z" fill="#100BEF" fill-opacity="0.6"/>
    </g>
    <defs>
    <clipPath id="clip0_1_44">
    <rect width="25" height="25" fill="white"/>
    </clipPath>
    </defs>
    </svg>
    